<svg width="215" height="55" viewBox="0 0 215 55" fill="none" xmlns="http://www.w3.org/2000/svg">
<path d="M15.9055 55H28.6085L38.456 21.6455H38.883L48.7305 55H61.4602L77.3389 0H62.7678L54.4949 36.1206H54.0412L44.6207 0H32.7183L23.2978 36.04H22.8441L14.5978 0H0L15.9055 55Z" fill="white"/>
<path d="M82.2864 55L85.8892 43.4521H104.757L108.36 55H122.557L104.116 0H86.5297L68.0889 55H82.2864ZM89.0383 33.3545L95.0962 13.8574H95.5232L101.608 33.3545H89.0383Z" fill="white"/>
<path d="M127.124 0H112.34L130.78 55H148.367L166.808 0H152.023L139.801 40.2832H139.347L127.124 0Z" fill="white"/>
<path d="M158.688 55H199.466L203.062 44.2041H175.445L179.364 32.8979H194.033H205.608L208.701 22.0752H182.529L185.981 10.7959H211.116L215 0L176.272 0L158.688 55Z" fill="white"/>
</svg>
