<svg width="213" height="56" viewBox="0 0 213 56" fill="none" xmlns="http://www.w3.org/2000/svg">
<path d="M16.2103 55.8592H29.1567L39.1929 22.0701H39.6281L49.6643 55.8592H62.638L78.8211 0.142578H63.9707L55.5392 36.7338H55.0768L45.4758 0.142578H33.3453L23.7442 36.6522H23.2819L14.8775 0.142578H0L16.2103 55.8592Z" fill="white"/>
<path d="M83.8634 55.8592L87.5352 44.1609H106.764L110.436 55.8592H124.906L106.112 0.142578H88.1879L69.3938 55.8592H83.8634ZM90.7446 33.9317L96.9186 14.1806H97.3538L103.555 33.9317H90.7446Z" fill="white"/>
<path d="M129.561 0.142578H114.493L133.287 55.8592H151.211L170.005 0.142578H154.937L142.48 40.9507H142.017L129.561 0.142578Z" fill="white"/>
<path d="M174.161 55.8592H213V44.9226H187.624V33.4692H211.015V22.5054H187.624V11.0791H213V0.142578H174.161V55.8592Z" fill="white"/>
</svg>
